<svg xmlns="http://www.w3.org/2000/svg" viewBox="0 0 103.11 103.11"><defs><style>.cls-1{fill:#fff4de;}.cls-2{fill:#55d6d2;}.cls-3{fill:#393c41;}.cls-4{fill:#ff8d23;}</style></defs><title>tax</title><g id="Layer_2" data-name="Layer 2"><g id="Layer_1-2" data-name="Layer 1"><circle class="cls-1" cx="51.56" cy="51.56" r="51.56" transform="matrix(0.99, -0.16, 0.16, 0.99, -7.48, 8.77)"/><rect class="cls-2" x="26.12" y="22.95" width="50.88" height="57.22" rx="4.1"/><path class="cls-3" d="M72.9,80.67H30.22a4.61,4.61,0,0,1-4.6-4.61v-49a4.6,4.6,0,0,1,4.6-4.6H72.9a4.61,4.61,0,0,1,4.6,4.6v49A4.62,4.62,0,0,1,72.9,80.67ZM30.22,23.45a3.6,3.6,0,0,0-3.6,3.6v49a3.61,3.61,0,0,0,3.6,3.61H72.9a3.61,3.61,0,0,0,3.6-3.61v-49a3.6,3.6,0,0,0-3.6-3.6Z"/><path class="cls-4" d="M77,43.24V27.05A4.1,4.1,0,0,0,72.9,23H30.22a4.09,4.09,0,0,0-4.1,4.1V43.24Z"/><path class="cls-3" d="M77.5,43.74H25.62V27.05a4.6,4.6,0,0,1,4.6-4.6H72.9a4.61,4.61,0,0,1,4.6,4.6Zm-50.88-1H76.5V27.05a3.6,3.6,0,0,0-3.6-3.6H30.22a3.6,3.6,0,0,0-3.6,3.6Z"/><rect class="cls-4" x="29.25" y="46.63" width="13.77" height="13.77" rx="3.73"/><path class="cls-3" d="M39.3,60.91H33a4.24,4.24,0,0,1-4.23-4.23V50.36A4.24,4.24,0,0,1,33,46.13H39.3a4.24,4.24,0,0,1,4.23,4.23v6.32A4.24,4.24,0,0,1,39.3,60.91ZM33,47.13a3.23,3.23,0,0,0-3.23,3.23v6.32A3.23,3.23,0,0,0,33,59.91H39.3a3.23,3.23,0,0,0,3.23-3.23V50.36a3.23,3.23,0,0,0-3.23-3.23Z"/><rect class="cls-4" x="44.56" y="46.63" width="13.77" height="13.77" rx="3.73"/><path class="cls-3" d="M54.6,60.91H48.28a4.23,4.23,0,0,1-4.22-4.23V50.36a4.23,4.23,0,0,1,4.22-4.23H54.6a4.23,4.23,0,0,1,4.23,4.23v6.32A4.23,4.23,0,0,1,54.6,60.91ZM48.28,47.13a3.23,3.23,0,0,0-3.22,3.23v6.32a3.23,3.23,0,0,0,3.22,3.23H54.6a3.23,3.23,0,0,0,3.23-3.23V50.36a3.23,3.23,0,0,0-3.23-3.23Z"/><rect class="cls-4" x="59.86" y="46.63" width="13.77" height="28.73" rx="3.73"/><path class="cls-3" d="M69.91,75.86H63.59a4.23,4.23,0,0,1-4.23-4.22V50.36a4.24,4.24,0,0,1,4.23-4.23h6.32a4.24,4.24,0,0,1,4.23,4.23V71.64A4.23,4.23,0,0,1,69.91,75.86ZM63.59,47.13a3.23,3.23,0,0,0-3.23,3.23V71.64a3.23,3.23,0,0,0,3.23,3.22h6.32a3.23,3.23,0,0,0,3.23-3.22V50.36a3.23,3.23,0,0,0-3.23-3.23Z"/><rect class="cls-4" x="29.25" y="61.59" width="13.77" height="13.77" rx="3.73"/><path class="cls-3" d="M39.3,75.86H33a4.23,4.23,0,0,1-4.23-4.22V65.32A4.23,4.23,0,0,1,33,61.09H39.3a4.23,4.23,0,0,1,4.23,4.23v6.32A4.23,4.23,0,0,1,39.3,75.86ZM33,62.09a3.23,3.23,0,0,0-3.23,3.23v6.32A3.23,3.23,0,0,0,33,74.86H39.3a3.23,3.23,0,0,0,3.23-3.22V65.32a3.23,3.23,0,0,0-3.23-3.23Z"/><rect class="cls-4" x="44.56" y="61.59" width="13.77" height="13.77" rx="3.73"/><path class="cls-3" d="M54.6,75.86H48.28a4.22,4.22,0,0,1-4.22-4.22V65.32a4.22,4.22,0,0,1,4.22-4.23H54.6a4.23,4.23,0,0,1,4.23,4.23v6.32A4.22,4.22,0,0,1,54.6,75.86ZM48.28,62.09a3.23,3.23,0,0,0-3.22,3.23v6.32a3.22,3.22,0,0,0,3.22,3.22H54.6a3.23,3.23,0,0,0,3.23-3.22V65.32a3.23,3.23,0,0,0-3.23-3.23Z"/><rect class="cls-2" x="29.76" y="27.61" width="43.36" height="12.07" rx="4.08"/><path class="cls-3" d="M69.05,40.18H33.84a4.59,4.59,0,0,1-4.58-4.58V31.69a4.59,4.59,0,0,1,4.58-4.58H69.05a4.58,4.58,0,0,1,4.57,4.58V35.6A4.58,4.58,0,0,1,69.05,40.18ZM33.84,28.11a3.58,3.58,0,0,0-3.58,3.58V35.6a3.59,3.59,0,0,0,3.58,3.58H69.05a3.58,3.58,0,0,0,3.57-3.58V31.69a3.57,3.57,0,0,0-3.57-3.58Z"/><path class="cls-1" d="M32.54,52.36H35V49.92h2.32v2.44h2.46v2.32H37.28v2.44H35V54.68H32.54Z"/><path class="cls-3" d="M37.53,57.37H34.71V54.93H32.29V52.11h2.42V49.67h2.82v2.44H40v2.82H37.53Zm-2.32-.5H37V54.43h2.45V52.61H37V50.17H35.21v2.44H32.79v1.82h2.42Z"/><path class="cls-1" d="M32.78,70.19l1.71-1.71-1.72-1.72,1.64-1.64,1.72,1.72,1.74-1.73,1.64,1.64-1.74,1.73,1.72,1.73-1.63,1.64-1.73-1.73-1.71,1.71Z"/><path class="cls-3" d="M37.86,72.2l-1.73-1.73-1.71,1.72-2-2,1.71-1.71-1.72-1.72,2-2,1.72,1.72,1.74-1.74,2,2-1.74,1.73,1.73,1.73Zm-1.73-2.43,1.73,1.72,1.28-1.28-1.72-1.73,1.73-1.73-1.28-1.29L36.13,67.2l-1.72-1.73-1.29,1.29,1.73,1.72-1.71,1.71,1.28,1.29Z"/><path class="cls-1" d="M48,52.36h7v2.32H48Z"/><path class="cls-3" d="M55.18,54.93H47.71V52.11h7.47Zm-7-.5h6.47V52.61H48.21Z"/><path class="cls-1" d="M48,67.32h7v2.31H48Z"/><path class="cls-3" d="M55.18,69.88H47.71V67.07h7.47Zm-7-.5h6.47V67.57H48.21Z"/><path class="cls-1" d="M63.61,58.42h6.28v2H63.61Zm0,3.19h6.28v2H63.61Z"/><path class="cls-3" d="M70.14,63.83H63.36V61.36h6.78Zm-6.28-.5h5.78V61.86H63.86Zm6.28-2.69H63.36V58.17h6.78Zm-6.28-.5h5.78V58.67H63.86Z"/><path class="cls-1" d="M52.52,65.4a1.08,1.08,0,1,0-1.08,1.08A1.07,1.07,0,0,0,52.52,65.4Z"/><path class="cls-3" d="M51.44,66.73a1.33,1.33,0,1,1,1.33-1.33A1.32,1.32,0,0,1,51.44,66.73Zm0-2.15a.83.83,0,1,0,.83.82A.82.82,0,0,0,51.44,64.58Z"/><path class="cls-1" d="M52.52,71.55a1.08,1.08,0,1,0-1.08,1.07A1.08,1.08,0,0,0,52.52,71.55Z"/><path class="cls-3" d="M51.44,72.87a1.33,1.33,0,1,1,1.33-1.32A1.32,1.32,0,0,1,51.44,72.87Zm0-2.15a.83.83,0,1,0,.83.83A.83.83,0,0,0,51.44,70.72Z"/></g></g></svg>