<svg xmlns="http://www.w3.org/2000/svg" viewBox="0 0 103.11 103.11"><defs><style>.cls-1{fill:#ff8d23;}.cls-2{fill:#55d6d2;}.cls-3{fill:#393c41;}.cls-4{fill:#fff4de;}</style></defs><title>Asset 7</title><g id="Layer_2" data-name="Layer 2"><g id="Layer_1-2" data-name="Layer 1"><circle class="cls-1" cx="51.56" cy="51.56" r="51.56" transform="translate(-15.45 80.31) rotate(-68.23)"/><rect class="cls-2" x="23.2" y="30.15" width="63.42" height="36.8" rx="3.3"/><path class="cls-3" d="M83.32,67.45H26.5a3.8,3.8,0,0,1-3.8-3.79V33.44a3.8,3.8,0,0,1,3.8-3.79H83.32a3.8,3.8,0,0,1,3.8,3.79V63.66A3.8,3.8,0,0,1,83.32,67.45ZM26.5,30.65a2.79,2.79,0,0,0-2.8,2.79V63.66a2.79,2.79,0,0,0,2.8,2.79H83.32a2.8,2.8,0,0,0,2.8-2.79V33.44a2.8,2.8,0,0,0-2.8-2.79Z"/><rect class="cls-2" x="19.9" y="33.27" width="63.42" height="36.8" rx="3.3"/><path class="cls-3" d="M80,70.57H23.2a3.8,3.8,0,0,1-3.8-3.79V36.56a3.8,3.8,0,0,1,3.8-3.79H80a3.79,3.79,0,0,1,3.79,3.79V66.78A3.79,3.79,0,0,1,80,70.57ZM23.2,33.77a2.8,2.8,0,0,0-2.8,2.79V66.78a2.8,2.8,0,0,0,2.8,2.79H80a2.79,2.79,0,0,0,2.79-2.79V36.56A2.79,2.79,0,0,0,80,33.77Z"/><rect class="cls-2" x="16.5" y="36.16" width="63.42" height="36.8" rx="3.3"/><path class="cls-3" d="M76.62,73.47H19.79A3.8,3.8,0,0,1,16,69.67V39.46a3.8,3.8,0,0,1,3.79-3.8H76.62a3.8,3.8,0,0,1,3.79,3.8V69.67A3.8,3.8,0,0,1,76.62,73.47ZM19.79,36.66A2.8,2.8,0,0,0,17,39.46V69.67a2.8,2.8,0,0,0,2.79,2.8H76.62a2.8,2.8,0,0,0,2.79-2.8V39.46a2.8,2.8,0,0,0-2.79-2.8Z"/><path class="cls-4" d="M19.68,45h0V64.09h0a5.58,5.58,0,0,1,5.58,5.58H71.15a5.58,5.58,0,0,1,5.58-5.58V45a5.58,5.58,0,0,1-5.58-5.58H25.26A5.58,5.58,0,0,1,19.68,45Z"/><path class="cls-3" d="M71.15,70.17H25.26a.5.5,0,0,1-.5-.5,5.09,5.09,0,0,0-5.08-5.08.5.5,0,0,1-.5-.5V45a.5.5,0,0,1,.5-.5,5.09,5.09,0,0,0,5.08-5.08.5.5,0,0,1,.5-.5H71.15a.5.5,0,0,1,.5.5,5.09,5.09,0,0,0,5.08,5.08.5.5,0,0,1,.5.5V64.09a.5.5,0,0,1-.5.5,5.09,5.09,0,0,0-5.08,5.08A.5.5,0,0,1,71.15,70.17Zm-45.41-1H70.67a6.1,6.1,0,0,1,5.56-5.56V45.52A6.1,6.1,0,0,1,70.67,40H25.74a6.1,6.1,0,0,1-5.56,5.56V63.61A6.1,6.1,0,0,1,25.74,69.17Z"/><ellipse class="cls-2" cx="48.21" cy="54.56" rx="12.38" ry="12.59"/><path class="cls-3" d="M48.21,67.66a13.1,13.1,0,1,1,12.88-13.1A13,13,0,0,1,48.21,67.66Zm0-25.19A12.1,12.1,0,1,0,60.09,54.56,12,12,0,0,0,48.21,42.47Z"/><path class="cls-4" d="M44.14,51.64c0-2.35,1.46-3.11,3.27-3.16V47.07H49v1.42a11.28,11.28,0,0,1,2.85.49v2.1c-1-.09-2.75-.16-3.57-.16s-1.41.06-1.41,1v.41c0,.71.29,1,1.16,1h1.32c2.44,0,3,2,3,3.31v.69c0,2.79-1.66,3.43-3.3,3.43v1.34H47.41V60.7a8.63,8.63,0,0,1-2.89-.5V58.11c.66,0,2.27.16,3.8.16.7,0,1.26-.16,1.26-.87v-.48c0-.59-.19-.94-1-.94H47.31a3,3,0,0,1-3.17-3.31Z"/><path class="cls-3" d="M49,62.56H47.41a.5.5,0,0,1-.5-.5v-.88a8.55,8.55,0,0,1-2.54-.51A.48.48,0,0,1,44,60.2V58.11a.48.48,0,0,1,.16-.36.49.49,0,0,1,.38-.14c1,.08,2.41.16,3.76.16.76,0,.76-.19.76-.37v-.48c0-.36,0-.44-.5-.44H47.31c-2.3,0-3.67-1.43-3.67-3.81v-1A3.31,3.31,0,0,1,46.91,48v-.94a.5.5,0,0,1,.5-.5H49a.5.5,0,0,1,.5.5v1a11.75,11.75,0,0,1,2.5.48.5.5,0,0,1,.35.48v2.1a.49.49,0,0,1-.16.37.57.57,0,0,1-.38.13c-1-.09-2.76-.16-3.53-.16h-.14c-.77,0-.77,0-.77.47v.41c0,.37,0,.49.66.49h1.32c2.54,0,3.45,2,3.45,3.81v.69c0,2.39-1.14,3.73-3.3,3.91v.86A.5.5,0,0,1,49,62.56Zm-1.06-1h.56v-.84a.5.5,0,0,1,.5-.5c1.91,0,2.8-.93,2.8-2.93V56.6c0-1.05-.32-2.81-2.45-2.81H48a1.42,1.42,0,0,1-1.66-1.49v-.41c0-1.47,1.15-1.47,1.77-1.47h.15c.66,0,2,0,3.06.12V49.36A10.67,10.67,0,0,0,49,49a.5.5,0,0,1-.48-.5v-.92h-.56v.91a.51.51,0,0,1-.49.5c-1.89.06-2.77.91-2.78,2.67v1c0,1.28.47,2.81,2.67,2.81h1.27a1.31,1.31,0,0,1,1.5,1.44v.48c0,.63-.31,1.37-1.76,1.37-1.15,0-2.35-.06-3.3-.12v1.18a8,8,0,0,0,2.4.37.51.51,0,0,1,.49.5Z"/><path class="cls-2" d="M31.9,54.56a3.58,3.58,0,1,0-3.58,3.58A3.57,3.57,0,0,0,31.9,54.56Z"/><path class="cls-3" d="M28.32,58.64a4.08,4.08,0,1,1,4.08-4.08A4.08,4.08,0,0,1,28.32,58.64Zm0-7.15a3.08,3.08,0,1,0,3.08,3.07A3.08,3.08,0,0,0,28.32,51.49Z"/><path class="cls-2" d="M71.67,54.56a3.58,3.58,0,1,0-3.58,3.58A3.57,3.57,0,0,0,71.67,54.56Z"/><path class="cls-3" d="M68.09,58.64a4.08,4.08,0,1,1,4.08-4.08A4.08,4.08,0,0,1,68.09,58.64Zm0-7.15a3.08,3.08,0,1,0,3.08,3.07A3.08,3.08,0,0,0,68.09,51.49Z"/></g></g></svg>