<svg xmlns="http://www.w3.org/2000/svg" viewBox="0 0 103.11 103.11"><defs><style>.cls-1{fill:#ff8d23;}.cls-2{fill:#55d6d2;}.cls-3{fill:#393c41;}.cls-4{fill:#fff4de;}</style></defs><title>Asset 6</title><g id="Layer_2" data-name="Layer 2"><g id="Layer_1-2" data-name="Layer 1"><circle class="cls-1" cx="51.56" cy="51.56" r="51.56" transform="translate(-7.48 8.77) rotate(-9.07)"/><path class="cls-2" d="M59.69,38.25H43.42c-2.54,0-4.6-2.45-4.6-5.46V27.4c0-3,2.06-5.45,4.6-5.45H59.69c2.54,0,4.61,2.44,4.61,5.45v5.39C64.3,35.8,62.23,38.25,59.69,38.25ZM43.42,25c-.76,0-1.6,1-1.6,2.45v5.39c0,1.45.84,2.46,1.6,2.46H59.69c.76,0,1.61-1,1.61-2.46V27.4C61.3,26,60.45,25,59.69,25Z"/><path class="cls-3" d="M59.69,38.75H43.42c-2.81,0-5.1-2.68-5.1-6V27.4c0-3.28,2.29-5.95,5.1-5.95H59.69c2.82,0,5.11,2.67,5.11,5.95v5.39C64.8,36.07,62.51,38.75,59.69,38.75ZM43.42,22.45c-2.26,0-4.1,2.22-4.1,4.95v5.39c0,2.73,1.84,5,4.1,5H59.69c2.27,0,4.11-2.23,4.11-5V27.4c0-2.73-1.84-4.95-4.11-4.95Zm16.27,13.3H43.42c-1,0-2.1-1.19-2.1-3V27.4c0-1.77,1.08-2.95,2.1-2.95H59.69c1,0,2.11,1.18,2.11,2.95v5.39C61.8,34.56,60.71,35.75,59.69,35.75ZM43.42,25.45c-.45,0-1.1.76-1.1,1.95v5.39c0,1.2.65,2,1.1,2H59.69c.45,0,1.11-.76,1.11-2V27.4c0-1.19-.66-1.95-1.11-1.95Z"/><path class="cls-2" d="M84.11,77.57a3.73,3.73,0,0,1-3.82,3.6H22.83A3.73,3.73,0,0,1,19,77.57V37.05a3.73,3.73,0,0,1,3.82-3.6H80.29a3.73,3.73,0,0,1,3.82,3.6Z"/><path class="cls-3" d="M80.29,81.67H22.83a4.22,4.22,0,0,1-4.32-4.1V37.05A4.22,4.22,0,0,1,22.83,33H80.29a4.22,4.22,0,0,1,4.32,4.1V77.57A4.22,4.22,0,0,1,80.29,81.67ZM22.83,34a3.22,3.22,0,0,0-3.32,3.1V77.57a3.22,3.22,0,0,0,3.32,3.1H80.29a3.22,3.22,0,0,0,3.32-3.1V37.05A3.22,3.22,0,0,0,80.29,34Z"/><path class="cls-2" d="M85.29,53.34a3.72,3.72,0,0,1-3.81,3.6H21.64a3.73,3.73,0,0,1-3.82-3.6V33.69a3.72,3.72,0,0,1,3.82-3.59H81.48a3.71,3.71,0,0,1,3.81,3.59Z"/><path class="cls-3" d="M81.48,57.44H21.64a4.22,4.22,0,0,1-4.32-4.1V33.69a4.21,4.21,0,0,1,4.32-4.09H81.48a4.2,4.2,0,0,1,4.31,4.09V53.34A4.21,4.21,0,0,1,81.48,57.44ZM21.64,30.6a3.21,3.21,0,0,0-3.32,3.09V53.34a3.22,3.22,0,0,0,3.32,3.1H81.48a3.21,3.21,0,0,0,3.31-3.1V33.69a3.2,3.2,0,0,0-3.31-3.09Z"/><rect class="cls-4" x="45.62" y="53.54" width="11.87" height="6.48"/><path class="cls-3" d="M57.49,60.52H45.62a.5.5,0,0,1-.5-.5V53.54a.5.5,0,0,1,.5-.5H57.49a.5.5,0,0,1,.5.5V60A.5.5,0,0,1,57.49,60.52Zm-11.37-1H57V54H46.12Z"/></g></g></svg>