<svg xmlns="http://www.w3.org/2000/svg" viewBox="0 0 103.11 103.11"><defs><style>.cls-1{fill:#ff8d23;}.cls-2{fill:#fff4de;}.cls-3{fill:#393c41;}.cls-4{fill:#55d6d2;}</style></defs><title>Asset 4</title><g id="Layer_2" data-name="Layer 2"><g id="Layer_1-2" data-name="Layer 1"><circle class="cls-1" cx="51.56" cy="51.56" r="51.56" transform="translate(-15.45 80.31) rotate(-68.23)"/><polygon class="cls-2" points="62.47 20.08 74.42 32.05 74.37 77.71 31.17 77.67 31.23 20.05 62.47 20.08"/><path class="cls-3" d="M74.87,78.21l-44.2,0,.06-58.62,32,0L74.91,31.84Zm-43.2-1,42.2,0,0-45L62.27,20.58l-30.54,0Z"/><polygon class="cls-2" points="59.84 22.76 71.79 34.71 71.79 80.38 28.59 80.38 28.59 22.76 59.84 22.76"/><path class="cls-3" d="M72.29,80.88H28.09V22.26h32L72.29,34.51Zm-43.2-1h42.2v-45L59.63,23.26H29.09Z"/><polygon class="cls-2" points="57.24 25.45 26 25.45 26 83.06 69.19 83.06 69.19 37.4 57.24 25.45"/><path class="cls-3" d="M69.2,83.56H26a.5.5,0,0,1-.5-.5V25.44a.5.5,0,0,1,.5-.5H57.24a.53.53,0,0,1,.36.15L69.55,37a.55.55,0,0,1,.15.36V83.06A.5.5,0,0,1,69.2,83.56Zm-42.7-1H68.7V37.61L57,25.94H26.5Z"/><polygon class="cls-2" points="57.24 37.4 69.19 37.4 57.24 25.45 57.24 37.4"/><path class="cls-3" d="M69.2,37.9h-12a.5.5,0,0,1-.5-.5v-12a.5.5,0,0,1,.31-.46.51.51,0,0,1,.54.11l12,12a.51.51,0,0,1,.11.54A.5.5,0,0,1,69.2,37.9Zm-11.46-1H68L57.74,26.65Z"/><rect class="cls-4" x="28.74" y="68.74" width="37.72" height="3.44"/><path class="cls-3" d="M67,72.68H28.24V68.24H67Zm-37.71-1H66V69.24H29.24Z"/><rect class="cls-4" x="28.74" y="61.89" width="37.72" height="3.44"/><path class="cls-3" d="M67,65.83H28.24V61.39H67Zm-37.71-1H66V62.39H29.24Z"/><rect class="cls-4" x="28.74" y="55.03" width="37.72" height="3.44"/><path class="cls-3" d="M67,59H28.24V54.53H67ZM29.24,58H66V55.53H29.24Z"/><rect class="cls-4" x="28.74" y="47.83" width="37.72" height="3.44"/><path class="cls-3" d="M67,51.77H28.24V47.33H67Zm-37.71-1H66V48.33H29.24Z"/><rect class="cls-4" x="28.74" y="40.97" width="25.5" height="3.44"/><path class="cls-3" d="M54.74,44.92H28.24V40.47h26.5Zm-25.5-1h24.5V41.47H29.24Z"/><polygon class="cls-2" points="69.72 67.8 67.27 66.63 64.83 65.47 60.7 71.34 61.63 78.48 67.76 74.7 69.72 67.8"/><path class="cls-3" d="M65.16,66.73l1.68.81,1.69.8L66.9,74.06l-4.48,2.75-.68-5.22,3.42-4.86Zm-.33-1.26L60.7,71.34l.93,7.14,6.13-3.78,2-6.9-2.45-1.17-2.44-1.16Z"/><path class="cls-4" d="M70.74,66.93a2,2,0,0,1-2.44.73l-2.47-1.18a2,2,0,0,1-1-2.36,159.13,159.13,0,0,1,13-27.32,2,2,0,0,1,2.44-.73l2.47,1.18a2,2,0,0,1,1,2.35A158.87,158.87,0,0,1,70.74,66.93Z"/><path class="cls-3" d="M79.55,36.91a.75.75,0,0,1,.35.07l2.45,1.16a1,1,0,0,1,.48,1.12A157.59,157.59,0,0,1,69.9,66.38a1,1,0,0,1-.81.44.83.83,0,0,1-.36-.07l-1-.46-1.46-.7a1,1,0,0,1-.49-1.12A159.54,159.54,0,0,1,78.73,37.34a1,1,0,0,1,.82-.43Zm0-1a2,2,0,0,0-1.66.89,159.13,159.13,0,0,0-13,27.32,2,2,0,0,0,1,2.36l2.47,1.18a2,2,0,0,0,.79.16,2,2,0,0,0,1.65-.89,158.87,158.87,0,0,0,13-27.33,2,2,0,0,0-1-2.35l-2.47-1.18a2,2,0,0,0-.78-.16Z"/><rect class="cls-4" x="65.38" y="63.84" width="3.38" height="6.42" transform="translate(-22.32 98.73) rotate(-64.5)"/><path class="cls-3" d="M65.38,65.48l4,1.9-.6,1.25-4-1.9.6-1.25Zm-.47-1.33-1.46,3L69.24,70l1.46-3-5.79-2.76Z"/><rect class="cls-2" x="66.88" y="63.07" width="1.12" height="6.42" transform="translate(-21.41 98.62) rotate(-64.5)"/><polygon class="cls-3" points="64.79 64.39 64.31 65.4 70.1 68.17 70.58 67.15 64.79 64.39 64.79 64.39"/><path class="cls-4" d="M65.11,72.87a.73.73,0,0,0-.35-1,.73.73,0,0,0-1,.34.73.73,0,0,0,.35,1A.73.73,0,0,0,65.11,72.87Z"/><path class="cls-3" d="M64.45,71.83a.74.74,0,0,0-.66.41.73.73,0,0,0,.35,1,.67.67,0,0,0,.31.07.74.74,0,0,0,.66-.41.73.73,0,0,0-.35-1,.67.67,0,0,0-.31-.07Z"/><polygon class="cls-4" points="64.96 72.19 61.63 78.48 64.41 71.93 64.96 72.19"/><polygon class="cls-3" points="64.41 71.93 61.63 78.48 64.96 72.19 64.41 71.93 64.41 71.93"/></g></g></svg>