<svg xmlns="http://www.w3.org/2000/svg" viewBox="0 0 103.11 103.11"><defs><style>.cls-1{fill:#fff4de;}.cls-2{fill:#ff8d23;}.cls-3{fill:#393c41;}</style></defs><title>Asset 8</title><g id="Layer_2" data-name="Layer 2"><g id="Layer_1-2" data-name="Layer 1"><circle class="cls-1" cx="51.56" cy="51.56" r="51.56" transform="translate(-7.48 8.77) rotate(-9.07)"/><rect class="cls-2" x="26.45" y="71.78" width="31.93" height="4.6"/><path class="cls-3" d="M58.88,76.88H26v-5.6H58.88ZM27,75.88H57.88v-3.6H27Z"/><rect class="cls-2" x="30.22" y="67.13" width="31.93" height="4.6"/><path class="cls-3" d="M62.65,72.24H29.72V66.63H62.65Zm-31.93-1H61.65V67.63H30.72Z"/><rect class="cls-2" x="26.45" y="62.53" width="31.93" height="4.6"/><path class="cls-3" d="M58.88,67.63H26V62H58.88ZM27,66.63H57.88V63H27Z"/><rect class="cls-2" x="26.45" y="44.03" width="31.93" height="4.6"/><path class="cls-3" d="M58.88,49.14H26V43.53H58.88ZM27,48.14H57.88V44.53H27Z"/><rect class="cls-2" x="26.45" y="39.65" width="31.93" height="4.6"/><path class="cls-3" d="M58.88,44.75H26v-5.6H58.88ZM27,43.75H57.88v-3.6H27Z"/><rect class="cls-2" x="28.75" y="57.93" width="31.93" height="4.6"/><path class="cls-3" d="M61.18,63H28.25v-5.6H61.18ZM29.25,62H60.18v-3.6H29.25Z"/><rect class="cls-2" x="27.4" y="48.64" width="31.93" height="4.6"/><path class="cls-3" d="M59.83,53.74H26.9v-5.6H59.83Zm-31.93-1H58.83v-3.6H27.9Z"/><rect class="cls-2" x="26.45" y="35.04" width="31.93" height="4.6"/><path class="cls-3" d="M58.88,40.15H26V34.54H58.88ZM27,39.15H57.88V35.54H27Z"/><rect class="cls-2" x="27.4" y="53.32" width="31.93" height="4.6"/><path class="cls-3" d="M59.83,58.43H26.9V52.82H59.83Zm-31.93-1H58.83V53.82H27.9Z"/><rect class="cls-2" x="27.4" y="30.44" width="31.93" height="4.6"/><path class="cls-3" d="M59.83,35.54H26.9v-5.6H59.83Zm-31.93-1H58.83v-3.6H27.9Z"/><rect class="cls-2" x="25.58" y="25.83" width="31.93" height="4.6"/><path class="cls-3" d="M58,30.94H25.08V25.33H58Zm-31.93-1H57V26.33H26.08Z"/><circle class="cls-2" cx="58.37" cy="58.12" r="19.16"/><path class="cls-3" d="M58.37,77.78A19.66,19.66,0,1,1,78,58.12,19.68,19.68,0,0,1,58.37,77.78Zm0-38.32A18.66,18.66,0,1,0,77,58.12,18.68,18.68,0,0,0,58.37,39.46Z"/><path class="cls-3" d="M58.37,42.18A15.94,15.94,0,1,0,74.31,58.12,15.94,15.94,0,0,0,58.37,42.18Zm0,31.12A15.18,15.18,0,1,1,73.56,58.12,15.18,15.18,0,0,1,58.37,73.3Z"/><path class="cls-1" d="M52.07,53.59c0-3.65,2.26-4.83,5.06-4.92V46.49h2.43v2.2a17.41,17.41,0,0,1,4.43.77v3.25c-1.54-.13-4.28-.25-5.54-.25-1.48,0-2.2.1-2.2,1.51v.63c0,1.1.46,1.54,1.81,1.54h2c3.78,0,4.56,3.09,4.56,5.14v1.07c0,4.33-2.57,5.32-5.11,5.32v2.08H57.13V67.63a13.33,13.33,0,0,1-4.47-.77V63.62c1,.08,3.52.25,5.89.25,1.08,0,2-.25,2-1.35v-.74c0-.92-.29-1.46-1.54-1.46H57c-4.57,0-4.92-3.75-4.92-5.15Z"/><path class="cls-3" d="M60.06,70.25H56.63V68.12a13.91,13.91,0,0,1-4.12-.78l-.35-.11V63.09l.54,0c1.23.09,3.63.24,5.85.24,1.34,0,1.45-.42,1.45-.85v-.74c0-.67-.1-1-1-1H57c-4.89,0-5.42-4-5.42-5.65V53.59c0-3.27,1.76-5.13,5.06-5.39V46h3.43v2.23a17.32,17.32,0,0,1,4.07.76l.36.11v4.16l-.55,0c-1.57-.14-4.28-.25-5.49-.25h-.24c-1.33,0-1.46.19-1.46,1v.63c0,.72.12,1,1.31,1h2c4.7,0,5.06,4.32,5.06,5.64v1.07c0,3.63-1.76,5.63-5.11,5.8Zm-2.43-1h1.43V67.17h.5c3.11,0,4.61-1.58,4.61-4.82V61.28c0-1.39-.39-4.64-4.06-4.64h-2c-1.6,0-2.31-.63-2.31-2V54c0-1.86,1.21-2,2.46-2h.25c1.09,0,3.41.09,5,.21V49.83a16.9,16.9,0,0,0-4-.64l-.48,0V47H57.63v2.17h-.48c-3.07.1-4.57,1.55-4.58,4.42v1.58c0,2.12.77,4.65,4.42,4.65h2c1.83,0,2,1.12,2,2v.74c0,1.23-.82,1.85-2.45,1.85-2,0-4.06-.12-5.39-.21v2.33a12.08,12.08,0,0,0,4,.64l.48,0Z"/></g></g></svg>