<svg xmlns="http://www.w3.org/2000/svg" viewBox="0 0 103.11 103.11"><defs><style>.cls-1{fill:#fff4de;}.cls-2{fill:#ff8d23;}.cls-3{fill:#393c41;}.cls-4{fill:#55d6d2;}</style></defs><title>bookkeeping</title><g id="Layer_2" data-name="Layer 2"><g id="Layer_1-2" data-name="Layer 1"><circle class="cls-1" cx="51.56" cy="51.56" r="51.56" transform="translate(-15.45 80.31) rotate(-68.23)"/><rect class="cls-2" x="18.31" y="72.84" width="65.56" height="4.96"/><path class="cls-3" d="M84.38,78.3H17.81v-6H84.38Zm-65.57-1H83.38v-4H18.81Z"/><rect class="cls-4" x="23.36" y="28.16" width="14.34" height="44.68"/><path class="cls-3" d="M38.2,73.34H22.86V27.66H38.2Zm-14.34-1H37.2V28.66H23.86Z"/><path class="cls-3" d="M34.4,62.41a3.87,3.87,0,1,0-3.87,3.87A3.87,3.87,0,0,0,34.4,62.41Z"/><path class="cls-1" d="M33.82,62.41a3.29,3.29,0,1,0-3.29,3.29A3.28,3.28,0,0,0,33.82,62.41Z"/><path class="cls-3" d="M30.53,66.2a3.79,3.79,0,1,1,3.79-3.79A3.79,3.79,0,0,1,30.53,66.2Zm0-6.57a2.79,2.79,0,1,0,2.79,2.78A2.79,2.79,0,0,0,30.53,59.63Z"/><rect class="cls-1" x="25.13" y="32.58" width="10.53" height="24.07"/><path class="cls-3" d="M36.15,57.15H24.63V32.08H36.15Zm-10.52-1h9.52V33.08H25.63Z"/><rect class="cls-3" x="25.55" y="36.87" width="10.06" height="0.93"/><rect class="cls-3" x="25.55" y="41.72" width="10.06" height="0.93"/><rect class="cls-3" x="25.55" y="46.58" width="10.06" height="0.93"/><rect class="cls-3" x="25.55" y="51.43" width="10.06" height="0.93"/><rect class="cls-2" x="41.56" y="28.16" width="14.34" height="44.68"/><path class="cls-3" d="M56.4,73.34H41.06V27.66H56.4Zm-14.34-1H55.4V28.66H42.06Z"/><circle class="cls-3" cx="48.73" cy="62.41" r="3.87"/><circle class="cls-1" cx="48.73" cy="62.41" r="3.28"/><path class="cls-3" d="M48.73,66.2a3.79,3.79,0,1,1,3.78-3.79A3.79,3.79,0,0,1,48.73,66.2Zm0-6.57a2.79,2.79,0,1,0,2.78,2.78A2.79,2.79,0,0,0,48.73,59.63Z"/><rect class="cls-1" x="43.32" y="32.58" width="10.53" height="24.07"/><path class="cls-3" d="M54.35,57.15H42.83V32.08H54.35Zm-10.52-1h9.52V33.08H43.83Z"/><rect class="cls-3" x="43.75" y="36.87" width="10.06" height="0.93"/><rect class="cls-3" x="43.75" y="41.72" width="10.06" height="0.93"/><rect class="cls-3" x="43.75" y="46.58" width="10.06" height="0.93"/><rect class="cls-3" x="43.75" y="51.43" width="10.06" height="0.93"/><rect class="cls-4" x="64.24" y="26.43" width="14.34" height="44.68" transform="matrix(0.96, -0.29, 0.29, 0.96, -11.14, 23.01)"/><path class="cls-3" d="M70.76,72.86,57.4,29.17l14.67-4.48L85.43,68.37Zm-12.11-43L71.42,71.61l12.76-3.9L71.41,25.94Z"/><path class="cls-3" d="M78.6,59A3.87,3.87,0,1,0,76,63.87,3.86,3.86,0,0,0,78.6,59Z"/><path class="cls-1" d="M78,59.21a3.28,3.28,0,1,0-2.18,4.1A3.28,3.28,0,0,0,78,59.21Z"/><path class="cls-3" d="M74.9,64h0a3.76,3.76,0,0,1-3.62-2.67A3.78,3.78,0,1,1,76,63.79,3.75,3.75,0,0,1,74.9,64Zm0-6.56a2.86,2.86,0,0,0-.82.12A2.78,2.78,0,0,0,74.9,63h0a2.78,2.78,0,1,0,0-5.56Z"/><rect class="cls-1" x="64.29" y="31.16" width="10.53" height="24.07" transform="translate(-9.59 22.23) rotate(-17)"/><path class="cls-3" d="M67.71,56.86l-7.33-24,11-3.37,7.33,24ZM61.63,33.55l6.74,22.06,9.12-2.78L70.74,30.77Z"/><rect class="cls-3" x="62.58" y="35.74" width="9.83" height="0.93" transform="translate(-7.64 21.32) rotate(-17)"/><rect class="cls-3" x="64" y="40.38" width="9.83" height="0.93" transform="translate(-8.93 21.94) rotate(-17)"/><rect class="cls-3" x="65.42" y="45.03" width="9.83" height="0.93" transform="matrix(0.96, -0.29, 0.29, 0.96, -10.23, 22.55)"/><rect class="cls-3" x="66.84" y="49.67" width="9.83" height="0.93" transform="translate(-11.52 23.17) rotate(-17)"/></g></g></svg>