<svg xmlns="http://www.w3.org/2000/svg" viewBox="0 0 103.11 103.11"><defs><style>.cls-1{fill:#fff4de;}.cls-2{fill:#ff8d23;}.cls-3{fill:#393c41;}.cls-4{fill:#55d6d2;}</style></defs><title>business consulting</title><g id="Layer_2" data-name="Layer 2"><g id="Layer_1-2" data-name="Layer 1"><circle class="cls-1" cx="51.56" cy="51.56" r="51.56" transform="translate(-21.36 51.56) rotate(-45)"/><rect class="cls-2" x="20.95" y="60.36" width="18.12" height="19.82"/><path class="cls-3" d="M39.57,80.67H20.45V59.85H39.57Zm-18.12-1H38.57V60.85H21.45Z"/><rect class="cls-2" x="42.5" y="56.29" width="18.12" height="23.88"/><path class="cls-3" d="M61.12,80.67H42V55.79H61.12ZM43,79.67H60.12V56.79H43Z"/><rect class="cls-2" x="64.04" y="46.67" width="18.12" height="33.51"/><path class="cls-3" d="M82.67,80.67H63.54V46.17H82.67Zm-18.13-1H81.67V47.17H64.54Z"/><path class="cls-4" d="M76.84,22.94,62.43,30.19l5.32,3.5C49.67,54.94,23.64,52.91,23.37,52.88a1.62,1.62,0,0,0-.29,3.23c.05,0,.87.07,2.3.07,7.11,0,29.12-1.65,45.1-20.7l5.44,3.57Z"/><path class="cls-3" d="M25.38,56.68c-.85,0-1.67,0-2.31-.07a2.12,2.12,0,0,1-1.95-2.3,2.09,2.09,0,0,1,2.29-1.93s.74.07,2.05.07c6,0,26.51-1.36,41.54-18.66l-5.57-3.65,16-8-1,17.84-5.8-3.8C54.35,55.19,31.91,56.68,25.38,56.68Zm-2.07-3.3a1.14,1.14,0,0,0-1.2,1,1.12,1.12,0,0,0,1,1.21c.63,0,1.43.07,2.26.07,6.46,0,28.75-1.48,44.71-20.52l.29-.34,5.09,3.33.82-14.37L63.43,30.25l5.07,3.33-.37.43C52.79,52,31.6,53.45,25.46,53.45c-1.39,0-2.14-.07-2.14-.07Z"/></g></g></svg>