<svg xmlns="http://www.w3.org/2000/svg" viewBox="0 0 103.11 103.11"><defs><style>.cls-1{fill:#ff8d23;}.cls-2{fill:#393c41;}.cls-3{fill:#fff4de;}.cls-4{fill:#55d6d2;}</style></defs><title>Asset 5</title><g id="Layer_2" data-name="Layer 2"><g id="Layer_1-2" data-name="Layer 1"><circle class="cls-1" cx="51.56" cy="51.56" r="51.56" transform="matrix(0.99, -0.16, 0.16, 0.99, -7.48, 8.77)"/><rect class="cls-2" x="29.16" y="44.97" width="44.8" height="1.55"/><rect class="cls-2" x="29.16" y="33.36" width="44.8" height="1.55"/><rect class="cls-2" x="29.16" y="68.21" width="44.8" height="1.55"/><rect class="cls-2" x="29.16" y="56.59" width="44.8" height="1.55"/><rect class="cls-3" x="39.15" y="30.52" width="3.76" height="7.23" rx="1.58"/><path class="cls-2" d="M41.32,38.25h-.59a2.09,2.09,0,0,1-2.08-2.09V32.1A2.08,2.08,0,0,1,40.73,30h.59a2.09,2.09,0,0,1,2.09,2.08v4.06A2.1,2.1,0,0,1,41.32,38.25ZM40.73,31a1.08,1.08,0,0,0-1.08,1.08v4.06a1.08,1.08,0,0,0,1.08,1.09h.59a1.09,1.09,0,0,0,1.09-1.09V32.1A1.08,1.08,0,0,0,41.32,31Z"/><rect class="cls-3" x="44.69" y="30.52" width="3.76" height="7.23" rx="1.58"/><path class="cls-2" d="M46.86,38.25h-.59a2.09,2.09,0,0,1-2.08-2.09V32.1A2.08,2.08,0,0,1,46.27,30h.59a2.08,2.08,0,0,1,2.08,2.08v4.06A2.09,2.09,0,0,1,46.86,38.25ZM46.27,31a1.08,1.08,0,0,0-1.08,1.08v4.06a1.08,1.08,0,0,0,1.08,1.09h.59a1.08,1.08,0,0,0,1.08-1.09V32.1A1.08,1.08,0,0,0,46.86,31Z"/><rect class="cls-3" x="39.15" y="65.37" width="3.76" height="7.23" rx="1.58"/><path class="cls-2" d="M41.32,73.1h-.59A2.09,2.09,0,0,1,38.65,71V67a2.08,2.08,0,0,1,2.08-2.08h.59A2.09,2.09,0,0,1,43.41,67V71A2.1,2.1,0,0,1,41.32,73.1Zm-.59-7.23A1.08,1.08,0,0,0,39.65,67V71a1.08,1.08,0,0,0,1.08,1.09h.59A1.09,1.09,0,0,0,42.41,71V67a1.08,1.08,0,0,0-1.09-1.08Z"/><rect class="cls-3" x="44.69" y="65.37" width="3.76" height="7.23" rx="1.58"/><path class="cls-2" d="M46.86,73.1h-.59A2.09,2.09,0,0,1,44.19,71V67a2.08,2.08,0,0,1,2.08-2.08h.59A2.08,2.08,0,0,1,48.94,67V71A2.09,2.09,0,0,1,46.86,73.1Zm-.59-7.23A1.08,1.08,0,0,0,45.19,67V71a1.08,1.08,0,0,0,1.08,1.09h.59A1.08,1.08,0,0,0,47.94,71V67a1.08,1.08,0,0,0-1.08-1.08Z"/><rect class="cls-3" x="50.52" y="30.52" width="3.76" height="7.23" rx="1.58"/><path class="cls-2" d="M52.7,38.25h-.6A2.09,2.09,0,0,1,50,36.16V32.1A2.08,2.08,0,0,1,52.1,30h.6a2.08,2.08,0,0,1,2.08,2.08v4.06A2.09,2.09,0,0,1,52.7,38.25ZM52.1,31A1.08,1.08,0,0,0,51,32.1v4.06a1.09,1.09,0,0,0,1.08,1.09h.6a1.09,1.09,0,0,0,1.08-1.09V32.1A1.08,1.08,0,0,0,52.7,31Z"/><rect class="cls-4" x="56.06" y="30.52" width="3.76" height="7.23" rx="1.58"/><path class="cls-2" d="M58.23,38.25h-.59a2.09,2.09,0,0,1-2.08-2.09V32.1A2.08,2.08,0,0,1,57.64,30h.59a2.09,2.09,0,0,1,2.09,2.08v4.06A2.1,2.1,0,0,1,58.23,38.25ZM57.64,31a1.08,1.08,0,0,0-1.08,1.08v4.06a1.08,1.08,0,0,0,1.08,1.09h.59a1.09,1.09,0,0,0,1.09-1.09V32.1A1.08,1.08,0,0,0,58.23,31Z"/><rect class="cls-4" x="39.15" y="53.75" width="3.76" height="7.23" rx="1.58"/><path class="cls-2" d="M41.32,61.48h-.59a2.08,2.08,0,0,1-2.08-2.08V55.33a2.08,2.08,0,0,1,2.08-2.08h.59a2.09,2.09,0,0,1,2.09,2.08V59.4A2.09,2.09,0,0,1,41.32,61.48Zm-.59-7.23a1.08,1.08,0,0,0-1.08,1.08V59.4a1.08,1.08,0,0,0,1.08,1.08h.59a1.09,1.09,0,0,0,1.09-1.08V55.33a1.09,1.09,0,0,0-1.09-1.08Z"/><rect class="cls-4" x="44.69" y="53.75" width="3.76" height="7.23" rx="1.58"/><path class="cls-2" d="M46.86,61.48h-.59a2.08,2.08,0,0,1-2.08-2.08V55.33a2.08,2.08,0,0,1,2.08-2.08h.59a2.08,2.08,0,0,1,2.08,2.08V59.4A2.08,2.08,0,0,1,46.86,61.48Zm-.59-7.23a1.08,1.08,0,0,0-1.08,1.08V59.4a1.08,1.08,0,0,0,1.08,1.08h.59a1.08,1.08,0,0,0,1.08-1.08V55.33a1.08,1.08,0,0,0-1.08-1.08Z"/><rect class="cls-3" x="50.52" y="53.75" width="3.76" height="7.23" rx="1.58"/><path class="cls-2" d="M52.7,61.48h-.6A2.08,2.08,0,0,1,50,59.4V55.33a2.08,2.08,0,0,1,2.08-2.08h.6a2.09,2.09,0,0,1,2.08,2.08V59.4A2.08,2.08,0,0,1,52.7,61.48Zm-.6-7.23A1.09,1.09,0,0,0,51,55.33V59.4a1.09,1.09,0,0,0,1.08,1.08h.6a1.09,1.09,0,0,0,1.08-1.08V55.33a1.09,1.09,0,0,0-1.08-1.08Z"/><rect class="cls-3" x="56.06" y="53.75" width="3.76" height="7.23" rx="1.58"/><path class="cls-2" d="M58.23,61.48h-.59a2.08,2.08,0,0,1-2.08-2.08V55.33a2.08,2.08,0,0,1,2.08-2.08h.59a2.09,2.09,0,0,1,2.09,2.08V59.4A2.09,2.09,0,0,1,58.23,61.48Zm-.59-7.23a1.08,1.08,0,0,0-1.08,1.08V59.4a1.08,1.08,0,0,0,1.08,1.08h.59a1.09,1.09,0,0,0,1.09-1.08V55.33a1.09,1.09,0,0,0-1.09-1.08Z"/><rect class="cls-4" x="62.39" y="30.52" width="3.76" height="7.23" rx="1.58"/><path class="cls-2" d="M64.56,38.25H64a2.09,2.09,0,0,1-2.08-2.09V32.1A2.08,2.08,0,0,1,64,30h.59a2.08,2.08,0,0,1,2.08,2.08v4.06A2.09,2.09,0,0,1,64.56,38.25ZM64,31a1.08,1.08,0,0,0-1.08,1.08v4.06A1.08,1.08,0,0,0,64,37.25h.59a1.08,1.08,0,0,0,1.08-1.09V32.1A1.08,1.08,0,0,0,64.56,31Z"/><rect class="cls-4" x="56.06" y="65.37" width="3.76" height="7.23" rx="1.58"/><path class="cls-2" d="M58.23,73.1h-.59A2.09,2.09,0,0,1,55.56,71V67a2.08,2.08,0,0,1,2.08-2.08h.59A2.09,2.09,0,0,1,60.32,67V71A2.1,2.1,0,0,1,58.23,73.1Zm-.59-7.23A1.08,1.08,0,0,0,56.56,67V71a1.08,1.08,0,0,0,1.08,1.09h.59A1.09,1.09,0,0,0,59.32,71V67a1.08,1.08,0,0,0-1.09-1.08Z"/><rect class="cls-4" x="62.39" y="65.37" width="3.76" height="7.23" rx="1.58"/><path class="cls-2" d="M64.56,73.1H64A2.09,2.09,0,0,1,61.89,71V67A2.08,2.08,0,0,1,64,64.87h.59A2.08,2.08,0,0,1,66.64,67V71A2.09,2.09,0,0,1,64.56,73.1ZM64,65.87A1.08,1.08,0,0,0,62.89,67V71A1.08,1.08,0,0,0,64,72.1h.59A1.08,1.08,0,0,0,65.64,71V67a1.08,1.08,0,0,0-1.08-1.08Z"/><rect class="cls-4" x="50.52" y="42.13" width="3.76" height="7.23" rx="1.58"/><path class="cls-2" d="M52.7,49.86h-.6A2.08,2.08,0,0,1,50,47.78V43.72a2.09,2.09,0,0,1,2.08-2.09h.6a2.09,2.09,0,0,1,2.08,2.09v4.06A2.08,2.08,0,0,1,52.7,49.86Zm-.6-7.23A1.09,1.09,0,0,0,51,43.72v4.06a1.08,1.08,0,0,0,1.08,1.08h.6a1.08,1.08,0,0,0,1.08-1.08V43.72a1.09,1.09,0,0,0-1.08-1.09Z"/><rect class="cls-4" x="56.06" y="42.13" width="3.76" height="7.23" rx="1.58"/><path class="cls-2" d="M58.23,49.86h-.59a2.08,2.08,0,0,1-2.08-2.08V43.72a2.09,2.09,0,0,1,2.08-2.09h.59a2.1,2.1,0,0,1,2.09,2.09v4.06A2.09,2.09,0,0,1,58.23,49.86Zm-.59-7.23a1.08,1.08,0,0,0-1.08,1.09v4.06a1.08,1.08,0,0,0,1.08,1.08h.59a1.08,1.08,0,0,0,1.09-1.08V43.72a1.09,1.09,0,0,0-1.09-1.09Z"/><rect class="cls-4" x="62.39" y="42.13" width="3.76" height="7.23" rx="1.58"/><path class="cls-2" d="M64.56,49.86H64a2.08,2.08,0,0,1-2.08-2.08V43.72A2.09,2.09,0,0,1,64,41.63h.59a2.09,2.09,0,0,1,2.08,2.09v4.06A2.08,2.08,0,0,1,64.56,49.86ZM64,42.63a1.08,1.08,0,0,0-1.08,1.09v4.06A1.08,1.08,0,0,0,64,48.86h.59a1.08,1.08,0,0,0,1.08-1.08V43.72a1.08,1.08,0,0,0-1.08-1.09Z"/><path class="cls-4" d="M73.47,22.18H29.64a4.21,4.21,0,0,0-4.21,4.21V76.72a4.21,4.21,0,0,0,4.21,4.21H73.47a4.2,4.2,0,0,0,4.21-4.21V26.39A4.2,4.2,0,0,0,73.47,22.18Zm.1,54.54a.1.1,0,0,1-.1.11H29.64a.11.11,0,0,1-.1-.11V26.39a.1.1,0,0,1,.1-.1H73.47a.09.09,0,0,1,.1.1Z"/><path class="cls-2" d="M73.47,81.43H29.64a4.72,4.72,0,0,1-4.71-4.71V26.39a4.72,4.72,0,0,1,4.71-4.71H73.47a4.71,4.71,0,0,1,4.71,4.71V76.72A4.71,4.71,0,0,1,73.47,81.43ZM29.64,22.68a3.72,3.72,0,0,0-3.71,3.71V76.72a3.72,3.72,0,0,0,3.71,3.71H73.47a3.71,3.71,0,0,0,3.71-3.71V26.39a3.71,3.71,0,0,0-3.71-3.71ZM73.47,77.33H29.64a.6.6,0,0,1-.6-.61V26.39a.6.6,0,0,1,.6-.6H73.47a.6.6,0,0,1,.6.6V76.72A.6.6,0,0,1,73.47,77.33ZM30,76.33h43V26.79H30Z"/></g></g></svg>