<svg xmlns="http://www.w3.org/2000/svg" viewBox="0 0 441.97 315.47"><defs><style>.cls-1{fill:#c8412e;}.cls-2{fill:#e25b4d;}.cls-3{fill:#a83226;}.cls-4{fill:#771b1b;}.cls-5{fill:#ead5ba;}</style></defs><title>canada</title><g id="Layer_2" data-name="Layer 2"><g id="OBJECTS"><rect class="cls-1" x="93.36" y="167.15" width="7.31" height="43.1"/><rect class="cls-1" x="107.89" y="184.35" width="7.31" height="25.9"/><rect class="cls-1" x="107.89" y="172.95" width="7.31" height="25.91"/><rect class="cls-1" x="186.08" y="185.9" width="4.97" height="24.36"/><rect class="cls-1" x="166.09" y="184.41" width="4.97" height="25.85"/><rect class="cls-1" x="153.07" y="171.11" width="7.92" height="32.55"/><rect class="cls-1" x="176.56" y="165.91" width="8.23" height="37.75"/><polygon class="cls-1" points="84.71 210.8 84.71 172.65 75.14 167.69 75.14 210.8 84.71 210.8"/><rect class="cls-1" x="49.81" y="185.9" width="8.03" height="26.63"/><rect class="cls-1" x="68.83" y="185.9" width="4.99" height="26.63"/><rect class="cls-1" x="36.42" y="178.75" width="4.99" height="33.78"/><rect class="cls-1" x="43.44" y="173.9" width="2.49" height="30.01"/><rect class="cls-1" x="53.85" y="168.65" width="2.49" height="30.01"/><rect class="cls-1" x="17.06" y="203.81" width="6.5" height="15.37"/><rect class="cls-1" x="25.94" y="197.95" width="3.77" height="10.65"/><rect class="cls-1" x="32.43" y="203.81" width="4.03" height="15.37"/><rect class="cls-1" x="6.23" y="199.69" width="4.03" height="19.5"/><rect class="cls-1" x="11.9" y="196.88" width="2.02" height="17.32"/><rect class="cls-1" x="22.92" y="191.14" width="2.02" height="23.43"/><rect class="cls-1" x="426.08" y="206.84" width="5.62" height="12.34"/><rect class="cls-1" x="420.75" y="202.14" width="3.27" height="8.55"/><rect class="cls-1" x="414.91" y="206.84" width="3.49" height="12.34"/><rect class="cls-1" x="437.58" y="203.53" width="3.49" height="15.66"/><rect class="cls-1" x="434.42" y="201.28" width="1.74" height="13.91"/><rect class="cls-1" x="424.89" y="196.67" width="1.74" height="18.82"/><rect class="cls-1" x="86.05" y="173.9" width="14.62" height="36.36"/><rect class="cls-2" x="268.71" y="138.59" width="7.17" height="69.47"/><rect class="cls-2" x="294.26" y="134.45" width="7.17" height="73.61"/><rect class="cls-2" x="251.6" y="117.33" width="9.39" height="90.73"/><rect class="cls-2" x="309.83" y="76.67" width="10.87" height="128.72"/><rect class="cls-2" x="314.72" y="38.33" width="1.36" height="127.19"/><rect class="cls-2" x="235.31" y="133.31" width="13.15" height="71.75"/><rect class="cls-2" x="257.35" y="148.48" width="14.34" height="57.95"/><rect class="cls-2" x="278.25" y="159.86" width="14.34" height="48.2"/><rect class="cls-2" x="257.35" y="156.29" width="57.89" height="47"/><rect class="cls-1" x="68.83" y="189.64" width="119.74" height="28.54"/><rect class="cls-2" x="287.4" y="146.01" width="4.43" height="42.28"/><rect class="cls-2" x="337.78" y="147.36" width="7.23" height="65.6"/><rect class="cls-2" x="248.33" y="174.58" width="4.92" height="38.37"/><rect class="cls-2" x="268.12" y="172.41" width="4.92" height="40.54"/><rect class="cls-2" x="254.53" y="145.55" width="8.14" height="54.82"/><rect class="cls-2" x="352.8" y="129.28" width="9.48" height="83.67"/><rect class="cls-2" x="370.37" y="142.87" width="13.26" height="61.02"/><polygon class="cls-2" points="163.48 211.82 163.48 153.24 156.25 151.16 156.25 211.82 163.48 211.82"/><rect class="cls-2" x="147.17" y="147.36" width="7.23" height="65.6"/><rect class="cls-2" x="164.7" y="131.44" width="9.48" height="83.04"/><polygon class="cls-2" points="138.71 207.69 129.23 207.69 129.23 131.5 138.71 123.2 138.71 207.69"/><rect class="cls-2" x="188.57" y="149.1" width="13.26" height="61.01"/><rect class="cls-1" x="182.08" y="176.9" width="191.85" height="31.48"/><path class="cls-3" d="M224.25,82.19a2.5,2.5,0,0,0-1.34-1.94,5.2,5.2,0,0,0,1.34-3.38,5.73,5.73,0,0,0-2.51-4.47V70.49c0-1.34-2.31-2.48-5.49-2.86V42.74a2.46,2.46,0,0,0,1.49-2.06,2.76,2.76,0,0,0-2.16-2.35V23.76h-.65V18.37h-.37V0H213.2V18.37h-.36v5.39h-.66V38.33A2.75,2.75,0,0,0,210,40.68a2.46,2.46,0,0,0,1.49,2.06V67.63c-3.19.38-5.5,1.52-5.5,2.86V72.4a5.73,5.73,0,0,0-2.51,4.47,5.25,5.25,0,0,0,1.34,3.38,2.52,2.52,0,0,0-1.34,1.94c0,1.74,3,3.22,7.09,3.74-.48,61-6.37,134.56-6.37,134.56h19.31s-5.89-73.55-6.38-134.56C221.28,85.41,224.25,83.93,224.25,82.19Z"/><rect class="cls-3" x="101.4" y="194.2" width="100.46" height="26.29"/><path class="cls-3" d="M201.41,207.16c-.64-17.76-22.68-32-49.78-32s-49.14,14.27-49.77,32Z"/><path class="cls-4" d="M185.21,198.9c-4.75-9.22-18-15.85-33.58-15.85s-28.82,6.63-33.58,15.85Z"/><rect class="cls-3" x="197.9" y="181.49" width="15.94" height="39"/><rect class="cls-3" x="247.68" y="162.83" width="14.37" height="57.66"/><polygon class="cls-3" points="240.24 220.49 225.88 220.49 225.88 162.83 240.24 154.21 240.24 220.49"/><rect class="cls-3" x="263.43" y="159.91" width="21.66" height="60.58"/><rect class="cls-3" x="290.07" y="171.97" width="16.52" height="48.52"/><rect class="cls-3" x="344.7" y="159.91" width="21.66" height="60.58"/><rect class="cls-3" x="371.33" y="154.66" width="21.18" height="65.83"/><rect class="cls-3" x="311.06" y="185.58" width="16.52" height="34.91"/><rect class="cls-3" x="330.31" y="176.83" width="11.46" height="43.66"/><rect class="cls-3" x="394.17" y="169.57" width="6.9" height="50.92"/><rect class="cls-3" x="212.09" y="188.49" width="18.02" height="32"/><rect class="cls-3" x="251.88" y="192.77" width="18.02" height="27.72"/><rect class="cls-3" x="276.08" y="187.74" width="18.02" height="32.76"/><rect class="cls-3" x="296.2" y="202.03" width="18.02" height="18.47"/><rect class="cls-3" x="323.75" y="205.91" width="13.53" height="14.58"/><rect class="cls-3" x="337.93" y="194.2" width="13.53" height="26.29"/><rect class="cls-3" x="361.26" y="191.14" width="13.53" height="29.35"/><rect class="cls-3" x="403.73" y="175.37" width="3.14" height="45.12"/><rect class="cls-3" x="407.69" y="185.82" width="3.14" height="33.15"/><rect class="cls-3" x="410.21" y="195.87" width="3.14" height="23.1"/><rect class="cls-3" x="411.77" y="200.12" width="3.14" height="18.85"/><rect class="cls-3" x="414.09" y="191.14" width="3.94" height="27.83"/><polygon class="cls-3" points="80.42 152.38 80.42 149.82 78.99 149.82 78.99 147.55 78 147.55 78 145.82 68.15 145.82 68.15 147.55 67.17 147.55 67.17 149.82 65.73 149.82 65.73 152.38 64.6 152.38 64.6 220.49 81.56 220.49 81.56 152.38 80.42 152.38"/><polygon class="cls-3" points="334.11 125.58 334.11 122.02 332.4 122.02 332.4 118.85 331.23 118.85 331.23 116.44 319.5 116.44 319.5 118.85 318.33 118.85 318.33 122.02 316.63 122.02 316.63 125.58 315.27 125.58 315.27 220.49 335.46 220.49 335.46 125.58 334.11 125.58"/><rect class="cls-3" x="79.38" y="187.85" width="11.75" height="32.64"/><rect class="cls-3" x="45.93" y="197.34" width="9.17" height="23.15"/><rect class="cls-3" x="56.61" y="182.13" width="6.36" height="38.36"/><rect class="cls-3" x="89.78" y="176.83" width="11.46" height="43.66"/><rect class="cls-3" x="40.93" y="205.9" width="10" height="14.59"/><rect class="cls-3" x="23.93" y="205.91" width="396.23" height="14.58"/><rect class="cls-3" x="38.11" y="194.2" width="13.53" height="26.29"/><rect class="cls-3" x="11.35" y="206.52" width="4.99" height="13.97"/><rect class="cls-3" x="17.16" y="197.34" width="3.46" height="23.15"/><rect class="cls-3" x="7.09" y="204.63" width="7.36" height="15.86"/><rect class="cls-3" y="212.53" width="28.63" height="7.96"/><rect class="cls-3" x="424.69" y="206.52" width="4.99" height="13.97"/><rect class="cls-3" x="430.5" y="197.34" width="3.46" height="23.15"/><rect class="cls-3" x="420.43" y="204.63" width="7.36" height="15.86"/><rect class="cls-3" x="413.34" y="212.53" width="28.62" height="7.96"/><rect class="cls-3" x="61.43" y="191.14" width="13.53" height="29.35"/><rect class="cls-3" x="93.51" y="191.14" width="13.53" height="29.35"/><rect class="cls-3" x="236.85" y="196.27" width="18.02" height="24.22"/><path class="cls-5" d="M442,220.49H0v3.43H6.23v5.53h4v-2.12H11.9v3.33h2v-3.33h.53v-.82h1.89v-2.59h.72v3.76h.1v2.78h3.46v-2.78h2.3v5.45h2v-6.36h1v3.43h3.77v-3.43h2.72v.91h4v10.79h5v-6.65h2v8.74h2.49v-8.74h3.88v3.57h4v7.43h2.49v-7.43h.27V237H63v-3.89H64.6v16.7h1.13v1.1h1.44v1h1v.75H78v-.75h1v-1h1.43v-1.1h1.13v-8l3.16-.7v-6.55h1.34v6h7.31v2.91h7.31V239.3h.57v-5.52h6.65V241h7.31v-5.44a95.49,95.49,0,0,0,14,3v20.31l9.48,3.57V239.55c2.73.2,5.56.35,8.46.42v12h7.24V241.76h1.84v8.6l7.23-.9v-9.83l1.22-.09v19.31h9.47V238.5l2.39-.37V244h8.23v-4.73h3.78v12h13.26v-12h5.35a348,348,0,0,1,3.42,39.18c-4.12.23-7.09.87-7.09,1.62,0,.3.5.59,1.34.83-.84.43-1.34.93-1.34,1.46,0,.74,1,1.41,2.51,1.93v.82c0,.58,2.31,1.06,5.5,1.23v10.72c-.9.21-1.49.53-1.49.89s.88.82,2.15,1v6.28h.66v2.32h.36v7.91h1.36v-7.91h.37v-2.32h.65V299c1.27-.19,2.16-.57,2.16-1s-.59-.68-1.49-.89V286.34c3.18-.17,5.49-.65,5.49-1.23v-.82c1.56-.52,2.51-1.19,2.51-1.93,0-.53-.49-1-1.34-1.46.85-.24,1.34-.53,1.34-.83,0-.75-3-1.39-7.09-1.62a350.38,350.38,0,0,1,3.42-39.18h5.3v6.06l9.43,2.44v10.28h13.14V245.33h3.15v19.6H261V252.77h1.68v-1.26h6v4.26h7.16v-7.62H287.4v4.42h4.43v-4.42h2.43v9.4h7.18v-9.4h8.39v34.29h4.89V299h1.37V282.44h4.6V265.31h10.54v-1h1.17v-1.36h1.71v-1.54h1.35V239.3h2.32V252H345v-5.41h7.79v13.19h9.47V246.59h4.08v-7.32h4v14.66h13.26v-5.08h8.88V226.77h1.66v15.65h6.9V226.77h2.66v13.16h3.14V226.77h.82v8.66h3.14V231.1h2.51v-1.83h.75v3.86H418v-6.36h2.13v-2.85h.27v3.41h.32v1.07H424v-1.07h.87v3.42h1.74v-3.42h1.17v-.82h1.88v-.14h.82v4.09H434v-6.54h.46v4.85h1.74v-4.85h1.42v3.88h3.49v-3.88h.9Z"/></g></g></svg>